PathFileType	4	(X/Y/Z)	Patient4_TMGait_0pt8_01_left_43.trc.trc
DataRate	CameraRate	NumFrames	NumMarkers	Units	OrigDataRate	OrigDataStartFrame	OrigNumFrames
88.050314465409	88.050314465409	5	33	mm	88.050314465409	71	       141
Frame#	Time	Sacral			L.Shoulder			Chest			R.Shoulder			Neck			R.ASIS			L.ASIS			R.Thigh.Superior			R.Thigh.Lateral			R.Thigh.Inferior			R.Patella			L.Thigh.Superior			L.Thigh.Lateral			L.Thigh.Inferior			L.Patella			L.Shank.Superior			L.Shank.Lateral			L.Shank.Inferior			R.Shank.Superior			R.Shank.Lateral			R.Shank.Inferior			R.Heel			R.Midfoot.Superior			R.Midfoot.Lateral			R.Toe			L.Heel			L.Midfoot.Lateral			L.Midfoot.Superior			L.Toe			L.Elbow			L.Wrist			R.Elbow			R.Wrist			
		X1	Y1	Z1	X2	Y2	Z2	X3	Y3	Z3	X4	Y4	Z4	X5	Y5	Z5	X6	Y6	Z6	X7	Y7	Z7	X8	Y8	Z8	X9	Y9	Z9	X10	Y10	Z10	X11	Y11	Z11	X12	Y12	Z12	X13	Y13	Z13	X14	Y14	Z14	X15	Y15	Z15	X16	Y16	Z16	X17	Y17	Z17	X18	Y18	Z18	X19	Y19	Z19	X20	Y20	Z20	X21	Y21	Z21	X22	Y22	Z22	X23	Y23	Z23	X24	Y24	Z24	X25	Y25	Z25	X26	Y26	Z26	X27	Y27	Z27	X28	Y28	Z28	X29	Y29	Z29	X30	Y30	Z30	X31	Y31	Z31	X32	Y32	Z32	X33	Y33	Z33	

71	48.505000000000	909.658972633585	995.367265582394	429.503755058092	1105.050975673469	1423.171666606861	262.701139032945	1191.966811141105	1351.700128754635	431.989072225821	1094.080301950222	1424.179607331990	598.564725160737	1075.803731850918	1483.303380203715	416.520359117459	1128.183322157619	931.418139251231	563.949013608706	1132.454878075583	952.715780336497	288.166551420851	1204.216885998284	761.360577946960	541.484035006889	1163.602366412112	641.120652451201	617.074506225183	1254.858845805673	604.263070362148	539.449805750657	1291.684448461659	528.188897827420	559.184372897838	1126.559054971539	724.489305198429	314.870500267793	1004.831795035025	634.143755694996	252.488415128282	1060.655703853515	538.677004109153	317.433295609311	1042.908767649709	473.521081719539	326.960029383979	1009.143317469156	408.436162233363	320.429522364702	905.036500658707	304.878348608562	272.239416879069	942.776523613166	189.639620733403	346.697177006952	1285.710496283022	441.179020453401	570.485244693261	1244.425111150207	323.086045677611	634.339330736340	1324.978741241254	245.077677366017	586.084595127406	1256.096790879096	47.386560461535	558.453417363160	1408.162255288250	139.705197751744	602.035636078730	1338.175051733246	55.546058878622	633.843684837935	1535.192479706410	117.395043534239	630.706170853695	803.350864021989	40.412501415776	396.112295104566	876.489143599083	35.844761054720	315.203601710299	960.646421690337	95.993932083642	341.201099308128	1087.955243444579	43.623834300814	312.055182876485	1218.414350669598	1122.588007796040	97.762152503664	1472.905813545454	1061.705725622468	106.658254161217	945.324978012524	1111.005266262732	699.898385973350	891.703578820016	856.762146055264	723.027053739331	
72	48.516357142857	911.423661325658	993.057757719753	431.776452348515	1105.248196623644	1421.474925821818	265.029082180515	1192.604974815241	1350.184787211482	434.148563526398	1094.650682715389	1422.451760197552	600.760222170300	1076.142964470514	1481.339686065886	418.851292691769	1130.288652809091	929.156354981254	565.898518631445	1133.906250702258	950.898003920488	289.936805200647	1205.990996806202	758.540149240422	542.903390478983	1163.677380031154	637.390749900546	616.710732196625	1255.387582502524	601.166385805751	539.602854062813	1291.175705860277	524.994784349607	557.927556215200	1126.021433423726	722.304373789036	316.161402615848	1003.124131806853	633.197831781398	253.635065375021	1057.880172610990	537.028548273188	318.526541658608	1039.370846456803	471.751239382184	327.951425760108	1004.735761465162	407.111975940322	321.222434687077	899.159236571389	305.049957535144	272.860538728379	935.213241905215	189.150983921957	347.010464251624	1285.481327720804	437.602691943970	568.761994125466	1243.930403224891	319.110048355884	631.383566232610	1324.675255105294	241.565198391295	582.934629734082	1255.721939879352	45.023977344450	554.391666942578	1407.794916208658	136.243686881131	598.040926313063	1337.441772269480	53.018128079828	630.060355056644	1534.623436712913	113.444991563969	627.435870206894	794.260855930616	40.729870035231	395.984183225878	867.456463305388	35.947980548685	315.217209364402	951.716005275011	95.980272517430	341.219366882505	1078.955185406169	43.193435153589	312.000444802534	1219.454036265062	1122.199348934440	99.067476843744	1476.016816464545	1074.913592024297	110.594679935193	939.551411623817	1113.686893971699	701.749309802522	879.578590364159	861.012183665670	723.568346487768	
73	48.527714285714	913.341541012486	990.765116886859	434.405244037116	1105.434672714281	1419.703229942784	267.453186921197	1193.319047323810	1348.714580309250	436.406014124029	1095.328022400306	1420.803266931548	603.069943816591	1076.553222010714	1479.387009900320	421.282753557018	1132.660250727675	926.881306212625	567.904279857594	1135.392821879094	949.080910305544	291.736835186845	1208.275955954218	755.910321767821	544.339690609249	1164.133780805677	633.806162211715	616.241362582432	1256.358697123316	598.317244037416	539.722788382424	1291.063974391981	521.708901367072	556.625913171200	1125.788559481994	720.189971369107	317.412624808378	1001.766527004255	632.210253494816	254.939193949934	1055.687909580329	535.336030182485	319.599264728091	1036.478893119427	469.833831128847	328.947441384366	1000.840030613385	405.656283428920	322.059155438625	893.607331642819	305.301349322041	273.575844975224	927.832785853123	188.668727120228	347.309683279315	1285.198299663625	433.768581722752	567.072772402921	1242.680039761310	315.163788653169	628.516553415593	1323.052264558748	237.573064679086	579.877594388951	1252.559539168726	43.057848521655	550.607533214223	1405.389310879900	131.830434875656	594.174418134328	1333.992003366934	50.291390269372	626.553598578218	1531.800062243807	107.452521994072	624.271376730089	785.164162443047	41.217099849710	395.797249731661	858.444002857495	36.094898455332	315.197373729867	942.850019620191	95.991209728986	341.188049067206	1069.995023900495	42.729436592152	311.926577445644	1220.112824667708	1121.452531622197	100.623917945307	1477.872433685830	1087.345563239923	114.743110236005	934.209935352106	1116.391610854705	703.694027134296	869.236560073521	865.043653642963	724.079601429264	
74	48.539071428571	915.386450470685	988.570434492928	437.344142185872	1105.644128397522	1417.924278189993	269.968121964040	1194.125505993741	1347.334490837630	438.756745656689	1096.139373212256	1419.273578153353	605.500089953495	1077.057035930091	1477.516220128245	423.821398888948	1135.259349806880	924.688753583605	569.939304941650	1136.917535709393	947.316596972085	293.544550046041	1210.971355831931	753.507610552127	545.767415294161	1164.947960962249	630.513046361469	615.781734667171	1257.682816054743	595.792631916599	539.857711184993	1291.279372877127	518.459260177534	555.394790838408	1125.880243259770	718.192610110471	318.614109363111	1000.783172169146	631.214506387116	256.410829372577	1054.123191191898	533.631897322985	320.652747332629	1034.297540371256	467.783669798721	329.927698031248	997.482461678526	404.100008297063	322.934044140227	888.412004942966	305.685790303137	274.379340970379	920.661597548395	188.237545285570	347.573459603609	1284.897870937877	429.867223707663	565.556758134179	1240.906724318942	311.390613726780	625.953698381231	1320.424859066031	233.330115414657	577.094282282247	1247.140506421948	41.558662853099	547.326097209187	1401.401950926500	126.767110175514	590.611125685769	1328.415691097539	47.504855048297	623.486141111875	1527.238553271620	99.864582155331	621.226820517976	776.067869629325	41.961473841552	395.535596842133	849.453376183850	36.314846029084	315.129200891585	934.081252509248	96.029845730446	341.079973132987	1061.075882987428	42.239442050108	311.833741128393	1220.347631027355	1120.356284600000	102.434565544532	1478.536657265714	1098.860957902533	119.044855078197	929.512381040385	1118.970461055194	705.701027460669	860.634206807825	868.685819065794	724.638312274132	
75	48.550428571429	917.523103465443	986.562278390923	440.529645737527	1105.911943516714	1416.222597285625	272.564862158763	1195.039019667307	1346.098329527105	441.192006147768	1097.109519223996	1417.908805572189	608.052035370408	1077.675997182746	1475.809705905931	426.470207456083	1138.030208896948	922.690887707931	571.988059356032	1138.480155470588	945.662491528659	295.352258845548	1213.958193712064	751.392241535859	547.176148329446	1166.105937152070	627.669290063709	615.465143792196	1259.277679728065	593.679442286362	540.070999828477	1291.754128040960	515.390356767588	554.370553015134	1126.312136809668	716.366632292972	319.786021049252	1000.213767855790	630.244483466084	258.056410968097	1053.241818927826	531.956222813739	321.701691438300	1032.901345919845	465.624414771661	330.872206851787	994.700926257293	402.485510899280	323.837270363803	883.618910429703	306.268379634896	275.260366677008	913.742149030299	187.917053224596	347.777698237350	1284.611352676698	426.108464681608	564.348585604034	1238.842752034730	307.957280658000	623.901273062962	1317.097062092563	229.098370534512	574.744073409666	1240.030952184231	40.565749168040	544.705898748960	1396.253821689856	121.427339614005	587.508221726479	1321.305643758468	44.820392522253	620.981596460873	1521.417253999636	91.290600639091	618.354556914204	766.991501751597	43.076442561536	395.184573242086	840.489998973124	36.653891454618	314.998734115783	925.454085049578	96.102138362642	340.864302542820	1052.193156549920	41.734501558596	311.724492687530	1220.106054214899	1118.927652565514	104.507711349397	1478.082898501940	1109.326477414055	123.446359897575	925.678201276006	1121.268359295427	707.753917875360	853.766429625231	871.796557092033	725.321224078154	
